<?xml version="1.0" encoding="UTF-8"?>
<svg version="1.1" viewBox="0 0 2048 902" width="3124" height="1376" xmlns="http://www.w3.org/2000/svg">
<path transform="translate(0)" d="m0 0h2048v902h-2048z" fill="#FDFEFE"/>
<path transform="translate(924,311)" d="m0 0h13l72 10 20 3 15 4 21 10 15 10 10 9 7 10 14 24 19 32 13 22h31l48-2h13l10 4 8 9 2 7v7l-3 9-5 6-7 4-4 1-91 4h-19l-9-4-6-5-28-46-4-7-3 4-12 23-8 16-9 17-8 16-12 22-1 4 4 2 7 7 11 9 7 7 11 9 10 10 11 9 14 13 8 7 7 12 10 33 25 87 7 25v10l-4 11-3 4 52 1-9-27-14-46-17-56-20-65-13-43-15-49 3-1 9 2h15l23-1 9 29 17 55 34 111 17 55 14 47v13l-4 10-9 8-8 3h-451l-10-4-5-5-4-5-3-10 1-11 17-56 14-46 9-1 24-1h17l-2 9-14 46-12 39 290-1-6-10-20-65-12-40-7-23-1-4-4-2-17-14-14-11-13-10-16-13-13-10-18-14-13-10-13-11-9-13-5-14-1-12 2-15 5-13 17-33 12-23 23-45 9-17-36-5-13-2h-5l-7 8-11 14-14 18-22 28-6 5-9 3h-7l-10-4-7-8-2-6v-11l5-10 13-16 12-16 13-16 11-14 9-11 6-7z" fill="#0F100F"/>
<path transform="translate(998,97)" d="m0 0h21l23 2 25 5 27 9 20 9 14 8 15 10 14 11 15 14 9 9 9 11 10 14 11 18 11 23 9 27 5 23 2 16 1 14v14l-2 24-5 25-6 21-9 22-3 6-12 1-45 2 2-5 7-11 11-21 8-22 5-24 1-9v-31l-3-20-6-23-6-15-8-16-7-12-9-12-12-14-8-8-11-9-14-10-18-10-16-7-23-7-16-3-8-1h-34l-19 3-19 5-16 6-16 8-15 9-13 10-10 9-13 13-14 19-9 15-9 20-6 19-4 19-2 19v15l2 20 6 25 3 9-1 5-4 9-1 4v12l4 12 9 10 9 5 4 1 16 1 13 14 8 7 8 8 3 8v12l-6 21-18 59-11 36-1 1-23 1h-27l6-20 18-58 11-36-2-4-13-13-11-14-9-12-11-18-8-16-7-16-7-21-5-24-2-17v-38l3-21 6-26 7-19 9-20 12-20 10-14 11-13 14-15 8-7 15-12 17-11 27-14 25-9 20-5 20-3z" fill="#0F100F"/>
<path transform="translate(919,543)" d="m0 0 3 3 6 9 7 8 11 9 27 21-8 15-14 26-13 23-7 11-7 7-12 6-4 1-48 2-89 3h-13l-10-3-8-6-6-10-1-4v-13l4-9 7-8 8-4 12-2 117-5 3-1 16-36 18-42z" fill="#0F100F"/>
<path transform="translate(1100,235)" d="m0 0h20l13 4 14 9 8 9 7 13 3 13v13l-4 15-7 12-10 10-10 6-11 4-5 1h-16l-14-4-11-6-8-7-9-14-4-12-1-6v-11l3-14 6-12 10-11 13-8z" fill="#0F100F"/>
</svg>
